:SAMPLES-PER-SECOND 30
:FULLY-SPECIFIED
:DEGREES
288
root  35.12565433 36.52333838 -14.64255325 9.411085129 5.315205097 3.158479691
lowerback  -8.511099815 0.7436139584 1.050290227
upperback  -3.719929934 0.6079670191 -3.080339909
thorax  0.9657449722 0.1219549999 -3.72461009
lowerneck  -17.1515007 1.103649974 1.577340007
upperneck  15.46679974 0.08894930035 4.371860027
head  7.598090172 0.4938789904 1.185570002
lclavicle  0 -4.497500157e-015 -2.743230041e-014
lhumerus  -43.48189926 26.49550056 70.23870087
lradius  -0.1976119578 -6.507048965e-006 28.04710007
lwrist  4.824992743e-007 -3.790274832e-007 -29.39900017
lhand  -4.396552911e-031 -36.56729889 -10.55500031
lfingers  90 7.125020027 -90
lthumb  94.63550456 -25.4046042 100.7025729
rclavicle  0 -4.497500157e-015 -2.743230041e-014
rhumerus  -33.97600174 -7.275091171 -70.62110138
rradius  -5.16745672e-007 2.214343908e-008 106.8389969
rwrist  1.129822067e-006 0.001802438172 -178.9250031
rhand  -1.769389492e-031 3.769049883 -4.769139767
rfingers  -90 -7.125020027 -90
rthumb  -83.82763224 -10.8918451 -60.21578319
rfemur  -11.24461555 13.1805439 14.17857552
rtibia  -0.9388893843 1.72764492 20.4789257
rfoot  -0.5742260814 -16.88195038 -41.38997269
rtoes  3.878572551 19.6354383 -101.4067299
lfemur  -9.370064735 -20.40368652 -18.814991
ltibia  2.528909922 1.345929384 14.71897984
lfoot  0.3669373095 -28.1537075 33.16290283
ltoes  -8.61159404 -18.11996497 -115.9634103
289
root  35.12516773 36.52429956 -14.64667733 9.374939919 5.221945286 3.136118174
lowerback  -8.474009514 0.7194140553 1.075479507
upperback  -3.73574996 0.5727679729 -3.059659958
thorax  0.9264600277 0.1035370007 -3.720639944
lowerneck  -17.07430077 1.112820029 1.578199983
upperneck  15.44410038 0.1201249808 4.300610065
head  7.576439857 0.501232028 1.16463995
lclavicle  0 -4.497500157e-015 -2.743230041e-014
lhumerus  -43.4693985 26.42810059 70.31839752
lradius  -0.1940677613 -6.507048965e-006 28.05780029
lwrist  4.824992743e-007 -3.790274832e-007 -29.23839951
lhand  -4.392785322e-031 -36.50099945 -10.54769993
lfingers  90 7.125020027 -90
lthumb  94.60313379 -25.39963106 100.6311256
rclavicle  0 -4.497500157e-015 -2.743230041e-014
rhumerus  -35.09280014 -8.040299416 -70.91079712
rradius  -5.16745672e-007 2.214343908e-008 106.1809998
rwrist  1.129822067e-006 0.001802438172 -178.776001
rhand  -0 4.070199966 -4.733369827
rfingers  -90 -7.125020027 -90
rthumb  -83.72876987 -10.93529911 -59.91642789
rfemur  -11.22317886 13.24566078 14.17844772
rtibia  -0.9287002087 1.733060002 20.45622444
rfoot  -0.5598468184 -16.8794651 -41.38041306
rtoes  3.882666166 19.63465998 -101.4189123
lfemur  -9.427605629 -20.37236977 -18.77241135
ltibia  2.438105345 1.294191003 14.85616302
lfoot  0.332352072 -28.11992455 33.13022614
ltoes  -8.628123115 -18.11230623 -116.016568
290
root  35.12547711 36.52578339 -14.65263217 9.371705055 5.091917038 3.110992432
lowerback  -8.416290283 0.7049599886 1.097239614
upperback  -3.742719889 0.5525789857 -3.029850006
thorax  0.8859410286 0.09356880188 -3.703769922
lowerneck  -17.01449966 1.15068996 1.516819954
upperneck  15.45960045 0.1857620329 4.313660145
head  7.569709778 0.5295770168 1.186030149
lclavicle  0 -4.497500157e-015 -2.743230041e-014
lhumerus  -43.49110031 26.51049995 70.33740234
lradius  -0.1905052662 -6.507048965e-006 28.06206131
lwrist  4.824992743e-007 -3.790274832e-007 -29.28779984
lhand  -4.391407539e-031 -36.47669983 -10.60540009
lfingers  90 7.125020027 -90
lthumb  94.60356775 -25.45724557 100.6101567
rclavicle  0 -4.497500157e-015 -2.743230041e-014
rhumerus  -36.20669937 -8.61907196 -71.13400269
rradius  -5.16745672e-007 2.214343908e-008 105.5650024
rwrist  1.129822067e-006 0.001802438172 -178.4029999
rhand  -0 3.684380054 -4.708909988
rfingers  -90 -7.125020027 -90
rthumb  -83.81974998 -10.94074755 -60.2932657
rfemur  -11.23875713 13.25454807 14.17672157
rtibia  -0.9145012498 1.697352052 20.42603683
rfoot  -0.5468587875 -16.95687675 -41.32436752
rtoes  3.882701469 19.63465326 -101.4190174
lfemur  -9.558933258 -20.34093285 -18.69578934
ltibia  2.319820642 1.244191766 15.0378809
lfoot  0.3115412295 -28.09576035 33.1412735
ltoes  -8.566914585 -18.14057534 -115.819829
291
root  35.12436274 36.52623995 -14.65746061 9.355530739 4.986183643 3.094278336
lowerback  -8.386519432 0.6919430494 1.145639658
upperback  -3.748729944 0.5317710042 -3.015160084
thorax  0.8621399999 0.08273279667 -3.717809916
lowerneck  -17.00839996 1.188760042 1.473180056
upperneck  15.51580048 0.2400379777 4.339220047
head  7.586070061 0.5556250215 1.208179951
lclavicle  0 -4.497500157e-015 -2.743230041e-014
lhumerus  -43.4598999 26.45479965 70.39409637
lradius  -0.1869152635 -6.507048965e-006 28.05450058
lwrist  4.824992743e-007 -3.790274832e-007 -29.17860031
lhand  -4.390971405e-031 -36.46900177 -10.60270023
lfingers  90 7.125020027 -90
lthumb  94.59940586 -25.45479592 100.6016721
rclavicle  0 -4.497500157e-015 -2.743230041e-014
rhumerus  -37.24089813 -9.295981407 -71.29039764
rradius  -5.16745672e-007 2.214343908e-008 104.7939987
rwrist  1.129822067e-006 0.001802438172 -178.3079987
rhand  -1.769504725e-031 3.825269938 -5.097290039
rfingers  -90 -7.125020027 -90
rthumb  -83.97874277 -10.60948621 -60.19151198
rfemur  -11.25299168 13.32922649 14.17423153
rtibia  -0.9076809883 1.703962564 20.43431473
rfoot  -0.5450028777 -16.96492195 -41.30811691
rtoes  3.874443094 19.63622256 -101.3944414
lfemur  -9.54683876 -20.27431107 -18.6801033
ltibia  2.29895401 1.255714655 15.04498768
lfoot  0.3203574419 -28.12803459 33.20162201
ltoes  -8.554536812 -18.14626147 -115.7800797
